<svg width="46" height="46" viewBox="0 0 46 46" fill="none" xmlns="http://www.w3.org/2000/svg">
<path d="M0 19.1434C0 29.7015 8.58968 38.2818 19.1384 38.2818C23.9984 38.2818 28.4439 36.4546 31.8251 33.4595L44.0221 45.6565C44.2482 45.8825 44.5401 45.9956 44.8415 45.9956C45.1429 45.9956 45.4349 45.8825 45.6609 45.6565C46.113 45.2044 46.113 44.4792 45.6609 44.0271L33.4545 31.8301C36.4496 28.4489 38.2768 24.0128 38.2768 19.1434C38.2768 8.58524 29.6871 0.00497437 19.1384 0.00497437C8.58968 0.00497437 0 8.58524 0 19.1434ZM35.9693 19.1434C35.9693 28.4206 28.4156 35.9743 19.1384 35.9743C9.86118 35.9743 2.30753 28.4206 2.30753 19.1434C2.30753 9.86615 9.86118 2.31251 19.1384 2.31251C28.4156 2.31251 35.9693 9.85674 35.9693 19.1434Z" fill="white"/>
</svg>
